<mxfile host="app.diagrams.net" modified="2024-01-09T20:22:58.051Z" agent="Mozilla/5.0 (Windows NT 10.0; Win64; x64) AppleWebKit/537.36 (KHTML, like Gecko) Chrome/120.0.0.0 Safari/537.36" etag="dxgqI7vOhUJHu3y4zT-6" version="22.1.17" type="github">
  <diagram id="C5RBs43oDa-KdzZeNtuy" name="Page-1">
    <mxGraphModel dx="1259" dy="1831" grid="1" gridSize="10" guides="1" tooltips="1" connect="1" arrows="1" fold="1" page="1" pageScale="1" pageWidth="827" pageHeight="1169" math="0" shadow="0">
      <root>
        <mxCell id="WIyWlLk6GJQsqaUBKTNV-0" />
        <mxCell id="WIyWlLk6GJQsqaUBKTNV-1" parent="WIyWlLk6GJQsqaUBKTNV-0" />
        <mxCell id="zkfFHV4jXpPFQw0GAbJ--0" value="&lt;&lt;інтерфейс&gt;&gt; &#xa;AbstractFactory&#xa;" style="swimlane;fontStyle=2;align=center;verticalAlign=top;childLayout=stackLayout;horizontal=1;startSize=40;horizontalStack=0;resizeParent=1;resizeLast=0;collapsible=1;marginBottom=0;rounded=0;shadow=0;strokeWidth=1;" parent="WIyWlLk6GJQsqaUBKTNV-1" vertex="1">
          <mxGeometry x="340" y="100" width="220" height="150" as="geometry">
            <mxRectangle x="220" y="100" width="160" height="26" as="alternateBounds" />
          </mxGeometry>
        </mxCell>
        <mxCell id="zkfFHV4jXpPFQw0GAbJ--3" value="create_table():Table:" style="text;align=left;verticalAlign=top;spacingLeft=4;spacingRight=4;overflow=hidden;rotatable=0;points=[[0,0.5],[1,0.5]];portConstraint=eastwest;rounded=0;shadow=0;html=0;" parent="zkfFHV4jXpPFQw0GAbJ--0" vertex="1">
          <mxGeometry y="40" width="220" height="26" as="geometry" />
        </mxCell>
        <mxCell id="zkfFHV4jXpPFQw0GAbJ--1" value="create_chair():Chair" style="text;align=left;verticalAlign=top;spacingLeft=4;spacingRight=4;overflow=hidden;rotatable=0;points=[[0,0.5],[1,0.5]];portConstraint=eastwest;" parent="zkfFHV4jXpPFQw0GAbJ--0" vertex="1">
          <mxGeometry y="66" width="220" height="22" as="geometry" />
        </mxCell>
        <mxCell id="cwwaikxjOajS9zUCSXog-0" value="" style="endArrow=none;html=1;rounded=0;exitX=0;exitY=0.75;exitDx=0;exitDy=0;entryX=1;entryY=0.75;entryDx=0;entryDy=0;" edge="1" parent="zkfFHV4jXpPFQw0GAbJ--0">
          <mxGeometry width="50" height="50" relative="1" as="geometry">
            <mxPoint y="90" as="sourcePoint" />
            <mxPoint x="220" y="90" as="targetPoint" />
          </mxGeometry>
        </mxCell>
        <mxCell id="cwwaikxjOajS9zUCSXog-2" value="some_operation_table():str" style="text;align=left;verticalAlign=top;spacingLeft=4;spacingRight=4;overflow=hidden;rotatable=0;points=[[0,0.5],[1,0.5]];portConstraint=eastwest;rounded=0;shadow=0;html=0;" vertex="1" parent="zkfFHV4jXpPFQw0GAbJ--0">
          <mxGeometry y="88" width="220" height="26" as="geometry" />
        </mxCell>
        <mxCell id="cwwaikxjOajS9zUCSXog-1" value="some_operation_chair():str" style="text;align=left;verticalAlign=top;spacingLeft=4;spacingRight=4;overflow=hidden;rotatable=0;points=[[0,0.5],[1,0.5]];portConstraint=eastwest;rounded=0;shadow=0;html=0;" vertex="1" parent="zkfFHV4jXpPFQw0GAbJ--0">
          <mxGeometry y="114" width="220" height="26" as="geometry" />
        </mxCell>
        <mxCell id="zkfFHV4jXpPFQw0GAbJ--6" value="ModernFactory" style="swimlane;fontStyle=0;align=center;verticalAlign=top;childLayout=stackLayout;horizontal=1;startSize=26;horizontalStack=0;resizeParent=1;resizeLast=0;collapsible=1;marginBottom=0;rounded=0;shadow=0;strokeWidth=1;" parent="WIyWlLk6GJQsqaUBKTNV-1" vertex="1">
          <mxGeometry x="340" y="-140" width="220" height="176" as="geometry">
            <mxRectangle x="130" y="380" width="160" height="26" as="alternateBounds" />
          </mxGeometry>
        </mxCell>
        <mxCell id="cwwaikxjOajS9zUCSXog-59" value="..." style="text;html=1;align=center;verticalAlign=middle;resizable=0;points=[];autosize=1;strokeColor=none;fillColor=none;" vertex="1" parent="zkfFHV4jXpPFQw0GAbJ--6">
          <mxGeometry y="26" width="220" height="30" as="geometry" />
        </mxCell>
        <mxCell id="zkfFHV4jXpPFQw0GAbJ--9" value="" style="line;html=1;strokeWidth=1;align=left;verticalAlign=middle;spacingTop=-1;spacingLeft=3;spacingRight=3;rotatable=0;labelPosition=right;points=[];portConstraint=eastwest;" parent="zkfFHV4jXpPFQw0GAbJ--6" vertex="1">
          <mxGeometry y="56" width="220" height="8" as="geometry" />
        </mxCell>
        <mxCell id="zkfFHV4jXpPFQw0GAbJ--7" value="create_table(): Table" style="text;align=left;verticalAlign=top;spacingLeft=4;spacingRight=4;overflow=hidden;rotatable=0;points=[[0,0.5],[1,0.5]];portConstraint=eastwest;" parent="zkfFHV4jXpPFQw0GAbJ--6" vertex="1">
          <mxGeometry y="64" width="220" height="26" as="geometry" />
        </mxCell>
        <mxCell id="zkfFHV4jXpPFQw0GAbJ--8" value="create_chair(): Chair" style="text;align=left;verticalAlign=top;spacingLeft=4;spacingRight=4;overflow=hidden;rotatable=0;points=[[0,0.5],[1,0.5]];portConstraint=eastwest;rounded=0;shadow=0;html=0;" parent="zkfFHV4jXpPFQw0GAbJ--6" vertex="1">
          <mxGeometry y="90" width="220" height="26" as="geometry" />
        </mxCell>
        <mxCell id="zkfFHV4jXpPFQw0GAbJ--12" value="" style="endArrow=block;endSize=10;endFill=0;shadow=0;strokeWidth=1;rounded=0;edgeStyle=elbowEdgeStyle;elbow=vertical;" parent="WIyWlLk6GJQsqaUBKTNV-1" source="zkfFHV4jXpPFQw0GAbJ--6" target="zkfFHV4jXpPFQw0GAbJ--0" edge="1">
          <mxGeometry width="160" relative="1" as="geometry">
            <mxPoint x="380" y="203" as="sourcePoint" />
            <mxPoint x="380" y="203" as="targetPoint" />
          </mxGeometry>
        </mxCell>
        <mxCell id="zkfFHV4jXpPFQw0GAbJ--16" value="" style="endArrow=block;endSize=10;endFill=0;shadow=0;strokeWidth=1;rounded=0;edgeStyle=elbowEdgeStyle;elbow=vertical;exitX=0.5;exitY=0;exitDx=0;exitDy=0;" parent="WIyWlLk6GJQsqaUBKTNV-1" source="cwwaikxjOajS9zUCSXog-53" target="zkfFHV4jXpPFQw0GAbJ--0" edge="1">
          <mxGeometry width="160" relative="1" as="geometry">
            <mxPoint x="590" y="360" as="sourcePoint" />
            <mxPoint x="490" y="271" as="targetPoint" />
          </mxGeometry>
        </mxCell>
        <mxCell id="cwwaikxjOajS9zUCSXog-28" value="Client" style="swimlane;fontStyle=0;align=center;verticalAlign=top;childLayout=stackLayout;horizontal=1;startSize=26;horizontalStack=0;resizeParent=1;resizeLast=0;collapsible=1;marginBottom=0;rounded=0;shadow=0;strokeWidth=1;fontSize=15;" vertex="1" parent="WIyWlLk6GJQsqaUBKTNV-1">
          <mxGeometry x="700" y="140" width="260" height="124" as="geometry">
            <mxRectangle x="550" y="140" width="160" height="26" as="alternateBounds" />
          </mxGeometry>
        </mxCell>
        <mxCell id="cwwaikxjOajS9zUCSXog-29" value="factory: AbstractFactory" style="text;align=left;verticalAlign=top;spacingLeft=4;spacingRight=4;overflow=hidden;rotatable=0;points=[[0,0.5],[1,0.5]];portConstraint=eastwest;" vertex="1" parent="cwwaikxjOajS9zUCSXog-28">
          <mxGeometry y="26" width="260" height="26" as="geometry" />
        </mxCell>
        <mxCell id="cwwaikxjOajS9zUCSXog-31" value="" style="line;html=1;strokeWidth=1;align=left;verticalAlign=middle;spacingTop=-1;spacingLeft=3;spacingRight=3;rotatable=0;labelPosition=right;points=[];portConstraint=eastwest;" vertex="1" parent="cwwaikxjOajS9zUCSXog-28">
          <mxGeometry y="52" width="260" height="8" as="geometry" />
        </mxCell>
        <mxCell id="cwwaikxjOajS9zUCSXog-30" value="client_code(factory: AbstractFactory)" style="text;align=left;verticalAlign=top;spacingLeft=4;spacingRight=4;overflow=hidden;rotatable=0;points=[[0,0.5],[1,0.5]];portConstraint=eastwest;rounded=0;shadow=0;html=0;" vertex="1" parent="cwwaikxjOajS9zUCSXog-28">
          <mxGeometry y="60" width="260" height="26" as="geometry" />
        </mxCell>
        <mxCell id="cwwaikxjOajS9zUCSXog-45" value="Some operation" style="text;align=left;verticalAlign=top;spacingLeft=4;spacingRight=4;overflow=hidden;rotatable=0;points=[[0,0.5],[1,0.5]];portConstraint=eastwest;rounded=0;shadow=0;html=0;" vertex="1" parent="cwwaikxjOajS9zUCSXog-28">
          <mxGeometry y="86" width="260" height="26" as="geometry" />
        </mxCell>
        <mxCell id="cwwaikxjOajS9zUCSXog-53" value="VictorianFactory" style="swimlane;fontStyle=0;align=center;verticalAlign=top;childLayout=stackLayout;horizontal=1;startSize=26;horizontalStack=0;resizeParent=1;resizeLast=0;collapsible=1;marginBottom=0;rounded=0;shadow=0;strokeWidth=1;" vertex="1" parent="WIyWlLk6GJQsqaUBKTNV-1">
          <mxGeometry x="340" y="380.5" width="220" height="159.5" as="geometry">
            <mxRectangle x="130" y="380" width="160" height="26" as="alternateBounds" />
          </mxGeometry>
        </mxCell>
        <mxCell id="cwwaikxjOajS9zUCSXog-66" value="...&#xa;" style="text;align=left;verticalAlign=top;spacingLeft=4;spacingRight=4;overflow=hidden;rotatable=0;points=[[0,0.5],[1,0.5]];portConstraint=eastwest;rounded=0;shadow=0;html=0;" vertex="1" parent="cwwaikxjOajS9zUCSXog-53">
          <mxGeometry y="26" width="220" height="26" as="geometry" />
        </mxCell>
        <mxCell id="cwwaikxjOajS9zUCSXog-56" value="" style="line;html=1;strokeWidth=1;align=left;verticalAlign=middle;spacingTop=-1;spacingLeft=3;spacingRight=3;rotatable=0;labelPosition=right;points=[];portConstraint=eastwest;" vertex="1" parent="cwwaikxjOajS9zUCSXog-53">
          <mxGeometry y="52" width="220" height="8" as="geometry" />
        </mxCell>
        <mxCell id="cwwaikxjOajS9zUCSXog-55" value="create_chair(): Chair" style="text;align=left;verticalAlign=top;spacingLeft=4;spacingRight=4;overflow=hidden;rotatable=0;points=[[0,0.5],[1,0.5]];portConstraint=eastwest;rounded=0;shadow=0;html=0;" vertex="1" parent="cwwaikxjOajS9zUCSXog-53">
          <mxGeometry y="60" width="220" height="26" as="geometry" />
        </mxCell>
        <mxCell id="cwwaikxjOajS9zUCSXog-54" value="create_table(): Table" style="text;align=left;verticalAlign=top;spacingLeft=4;spacingRight=4;overflow=hidden;rotatable=0;points=[[0,0.5],[1,0.5]];portConstraint=eastwest;" vertex="1" parent="cwwaikxjOajS9zUCSXog-53">
          <mxGeometry y="86" width="220" height="26" as="geometry" />
        </mxCell>
        <mxCell id="cwwaikxjOajS9zUCSXog-77" style="edgeStyle=orthogonalEdgeStyle;rounded=0;orthogonalLoop=1;jettySize=auto;html=1;exitX=0.5;exitY=0;exitDx=0;exitDy=0;entryX=0.5;entryY=1;entryDx=0;entryDy=0;" edge="1" parent="WIyWlLk6GJQsqaUBKTNV-1" source="cwwaikxjOajS9zUCSXog-61" target="cwwaikxjOajS9zUCSXog-74">
          <mxGeometry relative="1" as="geometry" />
        </mxCell>
        <mxCell id="cwwaikxjOajS9zUCSXog-61" value="VictorianChair" style="rounded=1;whiteSpace=wrap;html=1;" vertex="1" parent="WIyWlLk6GJQsqaUBKTNV-1">
          <mxGeometry x="40" y="320" width="110" height="60" as="geometry" />
        </mxCell>
        <mxCell id="cwwaikxjOajS9zUCSXog-78" style="edgeStyle=orthogonalEdgeStyle;rounded=0;orthogonalLoop=1;jettySize=auto;html=1;entryX=0.5;entryY=1;entryDx=0;entryDy=0;" edge="1" parent="WIyWlLk6GJQsqaUBKTNV-1" source="cwwaikxjOajS9zUCSXog-62" target="cwwaikxjOajS9zUCSXog-73">
          <mxGeometry relative="1" as="geometry" />
        </mxCell>
        <mxCell id="cwwaikxjOajS9zUCSXog-62" value="VictorianTable" style="rounded=1;whiteSpace=wrap;html=1;" vertex="1" parent="WIyWlLk6GJQsqaUBKTNV-1">
          <mxGeometry x="170" y="320" width="120" height="60" as="geometry" />
        </mxCell>
        <mxCell id="cwwaikxjOajS9zUCSXog-67" style="edgeStyle=orthogonalEdgeStyle;rounded=0;orthogonalLoop=1;jettySize=auto;html=1;exitX=0;exitY=0.5;exitDx=0;exitDy=0;entryX=0.5;entryY=1;entryDx=0;entryDy=0;" edge="1" parent="WIyWlLk6GJQsqaUBKTNV-1" source="cwwaikxjOajS9zUCSXog-66" target="cwwaikxjOajS9zUCSXog-62">
          <mxGeometry relative="1" as="geometry" />
        </mxCell>
        <mxCell id="cwwaikxjOajS9zUCSXog-68" style="edgeStyle=orthogonalEdgeStyle;rounded=0;orthogonalLoop=1;jettySize=auto;html=1;exitX=0;exitY=0.5;exitDx=0;exitDy=0;entryX=0.5;entryY=1;entryDx=0;entryDy=0;" edge="1" parent="WIyWlLk6GJQsqaUBKTNV-1" source="cwwaikxjOajS9zUCSXog-66" target="cwwaikxjOajS9zUCSXog-61">
          <mxGeometry relative="1" as="geometry" />
        </mxCell>
        <mxCell id="cwwaikxjOajS9zUCSXog-76" style="edgeStyle=orthogonalEdgeStyle;rounded=0;orthogonalLoop=1;jettySize=auto;html=1;exitX=0.5;exitY=1;exitDx=0;exitDy=0;" edge="1" parent="WIyWlLk6GJQsqaUBKTNV-1" source="cwwaikxjOajS9zUCSXog-69" target="cwwaikxjOajS9zUCSXog-73">
          <mxGeometry relative="1" as="geometry" />
        </mxCell>
        <mxCell id="cwwaikxjOajS9zUCSXog-69" value="ModernTable" style="rounded=1;whiteSpace=wrap;html=1;" vertex="1" parent="WIyWlLk6GJQsqaUBKTNV-1">
          <mxGeometry x="170" y="-50" width="120" height="60" as="geometry" />
        </mxCell>
        <mxCell id="cwwaikxjOajS9zUCSXog-75" style="edgeStyle=orthogonalEdgeStyle;rounded=0;orthogonalLoop=1;jettySize=auto;html=1;exitX=0.5;exitY=1;exitDx=0;exitDy=0;entryX=0.5;entryY=0;entryDx=0;entryDy=0;" edge="1" parent="WIyWlLk6GJQsqaUBKTNV-1" source="cwwaikxjOajS9zUCSXog-70" target="cwwaikxjOajS9zUCSXog-74">
          <mxGeometry relative="1" as="geometry" />
        </mxCell>
        <mxCell id="cwwaikxjOajS9zUCSXog-70" value="ModernChair" style="rounded=1;whiteSpace=wrap;html=1;" vertex="1" parent="WIyWlLk6GJQsqaUBKTNV-1">
          <mxGeometry x="37.5" y="-50" width="115" height="60" as="geometry" />
        </mxCell>
        <mxCell id="cwwaikxjOajS9zUCSXog-71" style="edgeStyle=orthogonalEdgeStyle;rounded=0;orthogonalLoop=1;jettySize=auto;html=1;entryX=0.5;entryY=0;entryDx=0;entryDy=0;" edge="1" parent="WIyWlLk6GJQsqaUBKTNV-1" source="cwwaikxjOajS9zUCSXog-59" target="cwwaikxjOajS9zUCSXog-69">
          <mxGeometry relative="1" as="geometry" />
        </mxCell>
        <mxCell id="cwwaikxjOajS9zUCSXog-72" style="edgeStyle=orthogonalEdgeStyle;rounded=0;orthogonalLoop=1;jettySize=auto;html=1;entryX=0.5;entryY=0;entryDx=0;entryDy=0;" edge="1" parent="WIyWlLk6GJQsqaUBKTNV-1" source="cwwaikxjOajS9zUCSXog-59" target="cwwaikxjOajS9zUCSXog-70">
          <mxGeometry relative="1" as="geometry" />
        </mxCell>
        <mxCell id="cwwaikxjOajS9zUCSXog-73" value="Table" style="rounded=1;whiteSpace=wrap;html=1;" vertex="1" parent="WIyWlLk6GJQsqaUBKTNV-1">
          <mxGeometry x="170" y="140" width="120" height="60" as="geometry" />
        </mxCell>
        <mxCell id="cwwaikxjOajS9zUCSXog-74" value="Chair" style="rounded=1;whiteSpace=wrap;html=1;" vertex="1" parent="WIyWlLk6GJQsqaUBKTNV-1">
          <mxGeometry x="37.5" y="140" width="115" height="60" as="geometry" />
        </mxCell>
        <mxCell id="cwwaikxjOajS9zUCSXog-83" value="" style="edgeStyle=orthogonalEdgeStyle;rounded=0;orthogonalLoop=1;jettySize=auto;html=1;" edge="1" parent="WIyWlLk6GJQsqaUBKTNV-1" source="cwwaikxjOajS9zUCSXog-81" target="cwwaikxjOajS9zUCSXog-45">
          <mxGeometry relative="1" as="geometry" />
        </mxCell>
        <mxCell id="cwwaikxjOajS9zUCSXog-81" value="&lt;div style=&quot;&quot;&gt;&lt;pre style=&quot;font-family: &amp;quot;JetBrains Mono&amp;quot;, monospace;&quot;&gt;&lt;div style=&quot;&quot;&gt;&lt;pre style=&quot;font-family: &amp;quot;JetBrains Mono&amp;quot;, monospace;&quot;&gt;&lt;div style=&quot;&quot;&gt;&lt;pre style=&quot;font-family: &amp;quot;JetBrains Mono&amp;quot;, monospace;&quot;&gt;&lt;span style=&quot;background-color: rgb(255, 255, 255);&quot;&gt;chair = factory.create_chair()&lt;/span&gt;&lt;/pre&gt;&lt;pre style=&quot;font-family: &amp;quot;JetBrains Mono&amp;quot;, monospace;&quot;&gt;&lt;div style=&quot;&quot;&gt;&lt;pre style=&quot;font-family:&#39;JetBrains Mono&#39;,monospace;font-size:9,8pt;&quot;&gt;&lt;span style=&quot;background-color: rgb(255, 255, 255);&quot;&gt;chair.useful_function_chair()&lt;/span&gt;&lt;/pre&gt;&lt;/div&gt;&lt;/pre&gt;&lt;/div&gt;&lt;/pre&gt;&lt;pre style=&quot;font-family: &amp;quot;JetBrains Mono&amp;quot;, monospace;&quot;&gt;&lt;div style=&quot;&quot;&gt;&lt;pre style=&quot;font-family: &amp;quot;JetBrains Mono&amp;quot;, monospace;&quot;&gt;&lt;span style=&quot;background-color: rgb(255, 255, 255);&quot;&gt;client_code(VictorianFactory())&lt;/span&gt;&lt;/pre&gt;&lt;/div&gt;&lt;/pre&gt;&lt;/div&gt;&lt;/pre&gt;&lt;/div&gt;" style="rounded=1;whiteSpace=wrap;html=1;" vertex="1" parent="WIyWlLk6GJQsqaUBKTNV-1">
          <mxGeometry x="640" y="295" width="310" height="75" as="geometry" />
        </mxCell>
        <mxCell id="cwwaikxjOajS9zUCSXog-84" style="edgeStyle=orthogonalEdgeStyle;rounded=0;orthogonalLoop=1;jettySize=auto;html=1;exitX=0;exitY=0.5;exitDx=0;exitDy=0;" edge="1" parent="WIyWlLk6GJQsqaUBKTNV-1" source="cwwaikxjOajS9zUCSXog-29" target="zkfFHV4jXpPFQw0GAbJ--0">
          <mxGeometry relative="1" as="geometry" />
        </mxCell>
        <mxCell id="cwwaikxjOajS9zUCSXog-85" value="&lt;div style=&quot;&quot;&gt;&lt;pre style=&quot;font-family: &amp;quot;JetBrains Mono&amp;quot;, monospace;&quot;&gt;&lt;span style=&quot;background-color: rgb(255, 255, 255);&quot;&gt;return &quot;The result of the&lt;/span&gt;&lt;/pre&gt;&lt;pre style=&quot;font-family: &amp;quot;JetBrains Mono&amp;quot;, monospace;&quot;&gt;&lt;span style=&quot;background-color: rgb(255, 255, 255);&quot;&gt; product Victorian Chair.&quot;&lt;/span&gt;&lt;/pre&gt;&lt;/div&gt;" style="shape=note;whiteSpace=wrap;html=1;backgroundOutline=1;darkOpacity=0.05;" vertex="1" parent="WIyWlLk6GJQsqaUBKTNV-1">
          <mxGeometry x="90" y="470" width="210" height="55" as="geometry" />
        </mxCell>
        <mxCell id="cwwaikxjOajS9zUCSXog-86" value="" style="endArrow=none;dashed=1;html=1;rounded=0;entryX=0;entryY=0.75;entryDx=0;entryDy=0;exitX=0;exitY=0;exitDx=210;exitDy=30;exitPerimeter=0;" edge="1" parent="WIyWlLk6GJQsqaUBKTNV-1" source="cwwaikxjOajS9zUCSXog-85" target="cwwaikxjOajS9zUCSXog-53">
          <mxGeometry width="50" height="50" relative="1" as="geometry">
            <mxPoint x="364" y="360" as="sourcePoint" />
            <mxPoint x="414" y="310" as="targetPoint" />
          </mxGeometry>
        </mxCell>
        <mxCell id="cwwaikxjOajS9zUCSXog-87" value="Chair" style="swimlane;fontStyle=0;childLayout=stackLayout;horizontal=1;startSize=26;fillColor=none;horizontalStack=0;resizeParent=1;resizeParentMax=0;resizeLast=0;collapsible=1;marginBottom=0;html=1;" vertex="1" parent="WIyWlLk6GJQsqaUBKTNV-1">
          <mxGeometry x="270" y="-720" width="198" height="148" as="geometry" />
        </mxCell>
        <mxCell id="cwwaikxjOajS9zUCSXog-99" value="&lt;div style=&quot;&quot;&gt;&lt;font face=&quot;JetBrains Mono, monospace&quot;&gt;useful_function_chair(self)&lt;/font&gt;&lt;/div&gt;" style="text;html=1;align=left;verticalAlign=middle;resizable=0;points=[];autosize=1;strokeColor=none;fillColor=none;" vertex="1" parent="cwwaikxjOajS9zUCSXog-87">
          <mxGeometry y="26" width="198" height="30" as="geometry" />
        </mxCell>
        <mxCell id="cwwaikxjOajS9zUCSXog-102" value="another_useful_function_chair" style="text;align=left;verticalAlign=top;spacingLeft=4;spacingRight=4;overflow=hidden;rotatable=0;points=[[0,0.5],[1,0.5]];portConstraint=eastwest;rounded=0;shadow=0;html=0;" vertex="1" parent="cwwaikxjOajS9zUCSXog-87">
          <mxGeometry y="56" width="198" height="26" as="geometry" />
        </mxCell>
        <mxCell id="cwwaikxjOajS9zUCSXog-89" value="fabric(self) -&amp;gt; str" style="text;strokeColor=none;fillColor=none;align=left;verticalAlign=top;spacingLeft=4;spacingRight=4;overflow=hidden;rotatable=0;points=[[0,0.5],[1,0.5]];portConstraint=eastwest;whiteSpace=wrap;html=1;" vertex="1" parent="cwwaikxjOajS9zUCSXog-87">
          <mxGeometry y="82" width="198" height="26" as="geometry" />
        </mxCell>
        <mxCell id="cwwaikxjOajS9zUCSXog-101" value="" style="line;strokeWidth=2;html=1;" vertex="1" parent="cwwaikxjOajS9zUCSXog-87">
          <mxGeometry y="108" width="198" height="10" as="geometry" />
        </mxCell>
        <mxCell id="cwwaikxjOajS9zUCSXog-118" value="..." style="text;html=1;align=center;verticalAlign=middle;resizable=0;points=[];autosize=1;strokeColor=none;fillColor=none;" vertex="1" parent="cwwaikxjOajS9zUCSXog-87">
          <mxGeometry y="118" width="198" height="30" as="geometry" />
        </mxCell>
        <mxCell id="cwwaikxjOajS9zUCSXog-112" style="edgeStyle=orthogonalEdgeStyle;rounded=0;orthogonalLoop=1;jettySize=auto;html=1;exitX=0.5;exitY=0;exitDx=0;exitDy=0;entryX=0.5;entryY=1;entryDx=0;entryDy=0;" edge="1" parent="WIyWlLk6GJQsqaUBKTNV-1" source="cwwaikxjOajS9zUCSXog-91" target="cwwaikxjOajS9zUCSXog-87">
          <mxGeometry relative="1" as="geometry" />
        </mxCell>
        <mxCell id="cwwaikxjOajS9zUCSXog-91" value="ModernChair" style="swimlane;fontStyle=0;childLayout=stackLayout;horizontal=1;startSize=26;fillColor=none;horizontalStack=0;resizeParent=1;resizeParentMax=0;resizeLast=0;collapsible=1;marginBottom=0;html=1;" vertex="1" parent="WIyWlLk6GJQsqaUBKTNV-1">
          <mxGeometry x="152.5" y="-450" width="190" height="148" as="geometry" />
        </mxCell>
        <mxCell id="cwwaikxjOajS9zUCSXog-117" value="..." style="text;html=1;align=center;verticalAlign=middle;resizable=0;points=[];autosize=1;strokeColor=none;fillColor=none;" vertex="1" parent="cwwaikxjOajS9zUCSXog-91">
          <mxGeometry y="26" width="190" height="30" as="geometry" />
        </mxCell>
        <mxCell id="cwwaikxjOajS9zUCSXog-116" value="" style="line;strokeWidth=2;html=1;" vertex="1" parent="cwwaikxjOajS9zUCSXog-91">
          <mxGeometry y="56" width="190" height="10" as="geometry" />
        </mxCell>
        <mxCell id="cwwaikxjOajS9zUCSXog-113" value="&lt;div style=&quot;&quot;&gt;&lt;font face=&quot;JetBrains Mono, monospace&quot;&gt;useful_function_chair()&lt;/font&gt;&lt;/div&gt;" style="text;html=1;align=left;verticalAlign=middle;resizable=0;points=[];autosize=1;strokeColor=none;fillColor=none;" vertex="1" parent="cwwaikxjOajS9zUCSXog-91">
          <mxGeometry y="66" width="190" height="30" as="geometry" />
        </mxCell>
        <mxCell id="cwwaikxjOajS9zUCSXog-150" value="another_useful_function_chair() -&gt; str:" style="text;align=left;verticalAlign=top;spacingLeft=4;spacingRight=4;overflow=hidden;rotatable=0;points=[[0,0.5],[1,0.5]];portConstraint=eastwest;rounded=0;shadow=0;html=0;" vertex="1" parent="cwwaikxjOajS9zUCSXog-91">
          <mxGeometry y="96" width="190" height="26" as="geometry" />
        </mxCell>
        <mxCell id="cwwaikxjOajS9zUCSXog-115" value="fabric() -&amp;gt; str" style="text;strokeColor=none;fillColor=none;align=left;verticalAlign=top;spacingLeft=4;spacingRight=4;overflow=hidden;rotatable=0;points=[[0,0.5],[1,0.5]];portConstraint=eastwest;whiteSpace=wrap;html=1;" vertex="1" parent="cwwaikxjOajS9zUCSXog-91">
          <mxGeometry y="122" width="190" height="26" as="geometry" />
        </mxCell>
        <mxCell id="cwwaikxjOajS9zUCSXog-124" style="edgeStyle=orthogonalEdgeStyle;rounded=0;orthogonalLoop=1;jettySize=auto;html=1;" edge="1" parent="WIyWlLk6GJQsqaUBKTNV-1" source="cwwaikxjOajS9zUCSXog-95">
          <mxGeometry relative="1" as="geometry">
            <mxPoint x="370" y="-570" as="targetPoint" />
          </mxGeometry>
        </mxCell>
        <mxCell id="cwwaikxjOajS9zUCSXog-95" value="VictorianChair" style="swimlane;fontStyle=0;childLayout=stackLayout;horizontal=1;startSize=26;fillColor=none;horizontalStack=0;resizeParent=1;resizeParentMax=0;resizeLast=0;collapsible=1;marginBottom=0;html=1;" vertex="1" parent="WIyWlLk6GJQsqaUBKTNV-1">
          <mxGeometry x="370" y="-450" width="180" height="148" as="geometry" />
        </mxCell>
        <mxCell id="cwwaikxjOajS9zUCSXog-120" value="..." style="text;html=1;align=center;verticalAlign=middle;resizable=0;points=[];autosize=1;strokeColor=none;fillColor=none;" vertex="1" parent="cwwaikxjOajS9zUCSXog-95">
          <mxGeometry y="26" width="180" height="30" as="geometry" />
        </mxCell>
        <mxCell id="cwwaikxjOajS9zUCSXog-121" value="" style="line;strokeWidth=2;html=1;" vertex="1" parent="cwwaikxjOajS9zUCSXog-95">
          <mxGeometry y="56" width="180" height="10" as="geometry" />
        </mxCell>
        <mxCell id="cwwaikxjOajS9zUCSXog-119" value="&lt;div style=&quot;&quot;&gt;&lt;font face=&quot;JetBrains Mono, monospace&quot;&gt;useful_function_chair()&lt;/font&gt;&lt;/div&gt;" style="text;html=1;align=left;verticalAlign=middle;resizable=0;points=[];autosize=1;strokeColor=none;fillColor=none;" vertex="1" parent="cwwaikxjOajS9zUCSXog-95">
          <mxGeometry y="66" width="180" height="30" as="geometry" />
        </mxCell>
        <mxCell id="cwwaikxjOajS9zUCSXog-151" value="another_useful_function_chair() -&gt; str:" style="text;align=left;verticalAlign=top;spacingLeft=4;spacingRight=4;overflow=hidden;rotatable=0;points=[[0,0.5],[1,0.5]];portConstraint=eastwest;rounded=0;shadow=0;html=0;" vertex="1" parent="cwwaikxjOajS9zUCSXog-95">
          <mxGeometry y="96" width="180" height="26" as="geometry" />
        </mxCell>
        <mxCell id="cwwaikxjOajS9zUCSXog-123" value="fabric() -&amp;gt; str" style="text;strokeColor=none;fillColor=none;align=left;verticalAlign=top;spacingLeft=4;spacingRight=4;overflow=hidden;rotatable=0;points=[[0,0.5],[1,0.5]];portConstraint=eastwest;whiteSpace=wrap;html=1;" vertex="1" parent="cwwaikxjOajS9zUCSXog-95">
          <mxGeometry y="122" width="180" height="26" as="geometry" />
        </mxCell>
        <mxCell id="cwwaikxjOajS9zUCSXog-125" value="Table" style="swimlane;fontStyle=0;childLayout=stackLayout;horizontal=1;startSize=26;fillColor=none;horizontalStack=0;resizeParent=1;resizeParentMax=0;resizeLast=0;collapsible=1;marginBottom=0;html=1;" vertex="1" parent="WIyWlLk6GJQsqaUBKTNV-1">
          <mxGeometry x="737.5" y="-720" width="198" height="122" as="geometry" />
        </mxCell>
        <mxCell id="cwwaikxjOajS9zUCSXog-145" value="useful_function_table" style="text;html=1;align=left;verticalAlign=middle;resizable=0;points=[];autosize=1;strokeColor=none;fillColor=none;" vertex="1" parent="cwwaikxjOajS9zUCSXog-125">
          <mxGeometry y="26" width="198" height="30" as="geometry" />
        </mxCell>
        <mxCell id="cwwaikxjOajS9zUCSXog-128" value="fabric(self) -&amp;gt; str" style="text;strokeColor=none;fillColor=none;align=left;verticalAlign=top;spacingLeft=4;spacingRight=4;overflow=hidden;rotatable=0;points=[[0,0.5],[1,0.5]];portConstraint=eastwest;whiteSpace=wrap;html=1;" vertex="1" parent="cwwaikxjOajS9zUCSXog-125">
          <mxGeometry y="56" width="198" height="26" as="geometry" />
        </mxCell>
        <mxCell id="cwwaikxjOajS9zUCSXog-129" value="" style="line;strokeWidth=2;html=1;" vertex="1" parent="cwwaikxjOajS9zUCSXog-125">
          <mxGeometry y="82" width="198" height="10" as="geometry" />
        </mxCell>
        <mxCell id="cwwaikxjOajS9zUCSXog-130" value="..." style="text;html=1;align=center;verticalAlign=middle;resizable=0;points=[];autosize=1;strokeColor=none;fillColor=none;" vertex="1" parent="cwwaikxjOajS9zUCSXog-125">
          <mxGeometry y="92" width="198" height="30" as="geometry" />
        </mxCell>
        <mxCell id="cwwaikxjOajS9zUCSXog-152" style="edgeStyle=orthogonalEdgeStyle;rounded=0;orthogonalLoop=1;jettySize=auto;html=1;exitX=0.5;exitY=0;exitDx=0;exitDy=0;" edge="1" parent="WIyWlLk6GJQsqaUBKTNV-1" source="cwwaikxjOajS9zUCSXog-132" target="cwwaikxjOajS9zUCSXog-130">
          <mxGeometry relative="1" as="geometry" />
        </mxCell>
        <mxCell id="cwwaikxjOajS9zUCSXog-132" value="ModernChair" style="swimlane;fontStyle=0;childLayout=stackLayout;horizontal=1;startSize=26;fillColor=none;horizontalStack=0;resizeParent=1;resizeParentMax=0;resizeLast=0;collapsible=1;marginBottom=0;html=1;" vertex="1" parent="WIyWlLk6GJQsqaUBKTNV-1">
          <mxGeometry x="627" y="-450" width="200" height="118" as="geometry" />
        </mxCell>
        <mxCell id="cwwaikxjOajS9zUCSXog-133" value="..." style="text;html=1;align=center;verticalAlign=middle;resizable=0;points=[];autosize=1;strokeColor=none;fillColor=none;" vertex="1" parent="cwwaikxjOajS9zUCSXog-132">
          <mxGeometry y="26" width="200" height="30" as="geometry" />
        </mxCell>
        <mxCell id="cwwaikxjOajS9zUCSXog-134" value="" style="line;strokeWidth=2;html=1;" vertex="1" parent="cwwaikxjOajS9zUCSXog-132">
          <mxGeometry y="56" width="200" height="10" as="geometry" />
        </mxCell>
        <mxCell id="cwwaikxjOajS9zUCSXog-136" value="useful_function_table() -&gt; str:" style="text;align=left;verticalAlign=top;spacingLeft=4;spacingRight=4;overflow=hidden;rotatable=0;points=[[0,0.5],[1,0.5]];portConstraint=eastwest;rounded=0;shadow=0;html=0;" vertex="1" parent="cwwaikxjOajS9zUCSXog-132">
          <mxGeometry y="66" width="200" height="26" as="geometry" />
        </mxCell>
        <mxCell id="cwwaikxjOajS9zUCSXog-137" value="fabric() -&amp;gt; str" style="text;strokeColor=none;fillColor=none;align=left;verticalAlign=top;spacingLeft=4;spacingRight=4;overflow=hidden;rotatable=0;points=[[0,0.5],[1,0.5]];portConstraint=eastwest;whiteSpace=wrap;html=1;" vertex="1" parent="cwwaikxjOajS9zUCSXog-132">
          <mxGeometry y="92" width="200" height="26" as="geometry" />
        </mxCell>
        <mxCell id="cwwaikxjOajS9zUCSXog-139" value="VictorianChair" style="swimlane;fontStyle=0;childLayout=stackLayout;horizontal=1;startSize=26;fillColor=none;horizontalStack=0;resizeParent=1;resizeParentMax=0;resizeLast=0;collapsible=1;marginBottom=0;html=1;" vertex="1" parent="WIyWlLk6GJQsqaUBKTNV-1">
          <mxGeometry x="850" y="-450" width="200" height="118" as="geometry" />
        </mxCell>
        <mxCell id="cwwaikxjOajS9zUCSXog-140" value="..." style="text;html=1;align=center;verticalAlign=middle;resizable=0;points=[];autosize=1;strokeColor=none;fillColor=none;" vertex="1" parent="cwwaikxjOajS9zUCSXog-139">
          <mxGeometry y="26" width="200" height="30" as="geometry" />
        </mxCell>
        <mxCell id="cwwaikxjOajS9zUCSXog-141" value="" style="line;strokeWidth=2;html=1;" vertex="1" parent="cwwaikxjOajS9zUCSXog-139">
          <mxGeometry y="56" width="200" height="10" as="geometry" />
        </mxCell>
        <mxCell id="cwwaikxjOajS9zUCSXog-148" value="useful_function_table() -&gt; str:" style="text;align=left;verticalAlign=top;spacingLeft=4;spacingRight=4;overflow=hidden;rotatable=0;points=[[0,0.5],[1,0.5]];portConstraint=eastwest;rounded=0;shadow=0;html=0;" vertex="1" parent="cwwaikxjOajS9zUCSXog-139">
          <mxGeometry y="66" width="200" height="26" as="geometry" />
        </mxCell>
        <mxCell id="cwwaikxjOajS9zUCSXog-149" value="fabric() -&amp;gt; str" style="text;strokeColor=none;fillColor=none;align=left;verticalAlign=top;spacingLeft=4;spacingRight=4;overflow=hidden;rotatable=0;points=[[0,0.5],[1,0.5]];portConstraint=eastwest;whiteSpace=wrap;html=1;" vertex="1" parent="cwwaikxjOajS9zUCSXog-139">
          <mxGeometry y="92" width="200" height="26" as="geometry" />
        </mxCell>
        <mxCell id="cwwaikxjOajS9zUCSXog-153" style="edgeStyle=orthogonalEdgeStyle;rounded=0;orthogonalLoop=1;jettySize=auto;html=1;entryX=0.499;entryY=1.012;entryDx=0;entryDy=0;entryPerimeter=0;" edge="1" parent="WIyWlLk6GJQsqaUBKTNV-1" source="cwwaikxjOajS9zUCSXog-139" target="cwwaikxjOajS9zUCSXog-130">
          <mxGeometry relative="1" as="geometry" />
        </mxCell>
      </root>
    </mxGraphModel>
  </diagram>
</mxfile>
